<svg width="40" height="40" viewBox="0 0 40 40" fill="none" xmlns="http://www.w3.org/2000/svg">
<path d="M35.3188 10.1032L29.8968 4.68125C29.7859 4.56875 29.6374 4.50781 29.4796 4.50781C29.3233 4.50781 29.1734 4.56875 29.0624 4.68125L20.4108 13.3312L21.2467 14.1656L29.4795 5.93281L34.0655 10.5204L32.6312 11.9548L30.0327 9.35477C29.8015 9.12508 29.4296 9.12508 29.1984 9.35477C28.9671 9.58758 28.9671 9.95945 29.1984 10.1891L31.7968 12.7891L30.153 14.4329L28.5124 12.7922C28.2812 12.5594 27.9093 12.5594 27.678 12.7922C27.4468 13.0219 27.4468 13.3954 27.678 13.6266L29.3187 15.2672L27.6749 16.911L25.0749 14.311C24.8437 14.0798 24.4718 14.0798 24.2406 14.311C24.0093 14.5423 24.0093 14.9141 24.2406 15.1454L26.8406 17.7454L25.8374 18.7485L26.6718 19.5829L35.3234 10.9328C35.5484 10.7078 35.5484 10.3344 35.3187 10.1032L35.3188 10.1032Z" fill="#4F46BA"/>
<path d="M17.7516 26.8344L15.1532 24.236C14.9219 24.0047 14.55 24.0047 14.3188 24.236C14.0876 24.4672 14.0876 24.8391 14.3188 25.0703L16.9172 27.6688L15.2735 29.3141L13.6328 27.6734C13.4016 27.4422 13.0282 27.4422 12.7969 27.6734C12.5657 27.9047 12.5657 28.2766 12.7969 28.5078L14.4376 30.1484L12.7938 31.7906L10.1954 29.1938C9.96412 28.9609 9.59068 28.9609 9.35944 29.1938C9.12819 29.4234 9.12819 29.7969 9.35944 30.0281L11.9579 32.6266L10.5235 34.0625L5.93752 29.4733L14.1687 21.2421L13.3344 20.4077L4.68436 29.0561C4.45311 29.2874 4.45311 29.6592 4.68436 29.8905L10.1064 35.3141C10.2173 35.4235 10.3657 35.4875 10.5236 35.4875C10.6798 35.4875 10.8298 35.4234 10.9408 35.3141L19.5908 26.6641L18.7548 25.8297L17.7516 26.8344Z" fill="#4F46BA"/>
<path d="M32.6752 27.2657L13.116 7.70649L11.8098 6.39712C10.8848 5.469 9.30196 5.41276 8.44568 6.27212L6.27224 8.44712C5.3816 9.33776 5.43944 10.8471 6.3988 11.808L27.266 32.6769C27.5379 32.9456 27.991 33.3925 32.9708 34.5206C33.0739 34.5425 33.177 34.555 33.2802 34.555C33.6271 34.555 33.9505 34.4237 34.1895 34.1831C34.4958 33.8737 34.6192 33.4222 34.5208 32.9738C33.3927 27.9846 32.9427 27.5345 32.6755 27.2657L32.6752 27.2657ZM7.2344 10.9721C6.73284 10.4721 6.67504 9.71273 7.10627 9.27988L9.27815 7.108C9.46409 6.9205 9.72503 6.81738 10.0094 6.81738C10.3563 6.81738 10.7078 6.96894 10.9719 7.23302L11.8625 8.12366L8.12343 11.8627L7.2344 10.9721ZM27.1156 29.3253C26.9093 29.2612 26.6844 29.3159 26.5312 29.4659C26.3781 29.6175 26.3172 29.8393 26.375 30.0472L26.4015 30.1425L8.95955 12.6973L12.7002 8.95818L30.0298 26.291C29.8267 26.2379 29.6126 26.291 29.4641 26.4363C29.311 26.5879 29.2516 26.8097 29.3095 27.0144L29.6173 28.1238L28.5829 27.8082C28.3767 27.7441 28.1517 27.8003 27.9986 27.9519C27.8439 28.1003 27.7845 28.3253 27.8423 28.5331L28.1501 29.6394L27.1156 29.3253ZM28.1 31.8409L27.8031 30.769L28.8312 31.0847C29.0406 31.1456 29.2718 31.0878 29.425 30.9331C29.575 30.7815 29.6343 30.5612 29.575 30.3565L29.2687 29.2534L30.3 29.5675C30.5046 29.6316 30.7296 29.5753 30.8843 29.4237C31.0374 29.2753 31.0984 29.0519 31.0406 28.8456L30.7296 27.7253L31.764 28.0284L31.8421 28.105C31.9265 28.1894 32.0765 28.4519 32.3077 29.1519L29.1546 32.3081C28.4484 32.0722 28.1874 31.9253 28.0999 31.8409L28.1 31.8409ZM33.3516 33.3534C33.3375 33.3659 33.3125 33.3753 33.2828 33.3753L33.2359 33.3675C32.0547 33.1018 31.1484 32.8753 30.4406 32.6847L32.6875 30.4378C32.8781 31.144 33.1031 32.0503 33.3718 33.23C33.3797 33.2831 33.3718 33.3316 33.3515 33.3534L33.3516 33.3534Z" fill="#4F46BA"/>
</svg>
