<svg width="40" height="40" viewBox="0 0 40 40" fill="none" xmlns="http://www.w3.org/2000/svg">
<path d="M34.6312 23.128H32.5796V6.72805C32.5734 5.66241 31.7093 4.80149 30.6437 4.79993H9.35612C8.2858 4.80149 7.4202 5.67025 7.4202 6.74057V23.1406H5.36864C4.92644 23.1406 4.56864 23.4984 4.56864 23.9406V33.2594C4.56864 34.3297 5.43428 35.1984 6.50456 35.2H33.4954C34.5657 35.1984 35.4313 34.3297 35.4313 33.2594V23.9282C35.4313 23.7157 35.3485 23.5125 35.1985 23.3625C35.0485 23.2125 34.8438 23.1281 34.6313 23.1281L34.6312 23.128ZM9.0312 6.72805C9.0312 6.54211 9.1812 6.39055 9.3687 6.38742H30.6439C30.8298 6.39055 30.9798 6.54211 30.9798 6.72805V23.128H28.5798C28.1845 23.1234 27.8439 23.4093 27.7798 23.7999L27.3439 26.4921H12.6643L12.2284 23.7999C12.1643 23.4093 11.8253 23.1234 11.4284 23.128H9.0284L9.0312 6.72805ZM33.8312 33.2484C33.8312 33.4344 33.6828 33.5859 33.4953 33.5875H6.50447C6.31697 33.5859 6.16853 33.4344 6.16853 33.2484V24.728H10.7561L11.1999 27.4202C11.264 27.8109 11.603 28.0968 11.9999 28.0921H28.0407C28.436 28.0968 28.7766 27.8109 28.8407 27.4202L29.2766 24.728H33.8314L33.8312 33.2484Z" fill="#4F46BA"/>
<path d="M22.0564 29.8593H17.944C17.5018 29.8593 17.144 30.2186 17.144 30.6593C17.144 31.1015 17.5018 31.4593 17.944 31.4593H22.0564C22.4986 31.4593 22.8564 31.1014 22.8564 30.6593C22.8564 30.2186 22.4986 29.8593 22.0564 29.8593Z" fill="#4F46BA"/>
<path d="M17.1564 15.092L19.2002 12.6592V22.4312C19.2002 22.8734 19.558 23.2312 20.0002 23.2312C20.4423 23.2312 20.8002 22.8734 20.8002 22.4312V12.6592L22.8439 15.0905V15.092C22.997 15.2717 23.2205 15.3764 23.4564 15.3764C23.6423 15.378 23.8236 15.3155 23.9689 15.1999C24.3048 14.917 24.3501 14.4139 24.0689 14.0764L20.6126 9.94841C20.4548 9.77654 20.233 9.6781 20.0002 9.6781C19.7674 9.6781 19.5455 9.77654 19.3877 9.94841L15.9314 14.064C15.6721 14.4031 15.7252 14.8875 16.0518 15.164C16.3799 15.439 16.8674 15.4078 17.1564 15.0921L17.1564 15.092Z" fill="#4F46BA"/>
</svg>
